<svg width="98" height="46" viewBox="0 0 98 46" fill="none" xmlns="http://www.w3.org/2000/svg">
<g clip-path="url(#clip0_1359_183)">
<path d="M9.27151 12.9164H0V44.8747H9.27151V12.9164Z" fill="#231F20"/>
<path d="M9.27151 1.06712H0V9.2438H9.27151V1.06712Z" fill="#0054A4"/>
<path d="M86.5341 26.3871C92.7151 25.2784 95.9858 20.511 95.9858 14.3993C95.9858 4.19921 88.4466 1.1087 79.48 1.1087H62.5446V9.25766H73.5485H78.4961C82.0162 9.25766 85.9798 9.93674 85.9798 14.33C85.9798 19.0974 81.4064 19.2083 77.8863 19.2083H72.2042V12.9164H62.5585V44.8608H72.2042V27.3711H76.9577L86.1045 44.8608H97.6627L86.5341 26.3732V26.3871Z" fill="#231F20"/>
<path d="M36.0051 37.0861C44.2233 37.0861 49.6005 31.1545 49.6005 22.9917C49.6005 14.8289 44.2233 8.89733 36.0051 8.89733C27.7868 8.89733 22.4096 14.8289 22.4096 22.9917C22.4096 31.1545 27.7868 37.0861 36.0051 37.0861ZM36.0051 0C49.6698 0 59.6204 8.96662 59.6204 22.9917C59.6204 37.0168 49.6698 45.9834 36.0051 45.9834C22.3403 45.9834 12.3897 37.0168 12.3897 22.9917C12.3897 8.96662 22.3403 0 36.0051 0Z" fill="#231F20"/>
</g>
<defs>
<clipPath id="clip0_1359_183">
<rect width="97.6489" height="45.9834" fill="white"/>
</clipPath>
</defs>
</svg>
